:FULLY-SPECIFIED
:FORCE-ALL-JOINTS-BE-3DOF
:DEGREES
2752
root -5.559 13.9753 -28.4071 1242 -65.4881 -161.137
lfemur -59.5384 42.9623 -6.57898
ltibia 68.1249 -0 0
lfoot -2.39849 -0.817272 0.00347298
ltoes -31.4508 0 0
rfemur -30.8908 -18.4123 21.671
rtibia 82.113 -0 0
rfoot -35.2584 -24.75 0
rtoes -14.4501 0 0
lowerback 15.6667 5.79914 0.491115
upperback -4.01752 8.07856 1.4492
thorax -13.4247 3.78607 -0.844322
lowerneck -2.49027 9.60068 2.10698
upperneck 7.69873 12.5515 1.93281
head 2.89222 6.33604 0.677191
lclavicle 1.77086e-14 -1.78708e-14 4.38663e-30
lhumerus 3.56773 10.4218 84.1627
lradius 95.1122 -0 0
lwrist -18.7824 0 0
lhand -39.8132 27.9573 -0.000160049
lfingers 7.12502 -0 0
lthumb -12.7888 56.8889 7.04887e-05
rclavicle -4.25795e-14 1.19918e-15 -6.79735e-32
rhumerus -57.7618 50.9924 -110.101
rradius 114.094 -0 0
rwrist -84.6685 0 0
rhand 4.41897 -26.8259 0.000353149
rfingers 7.12502 -0 0
rthumb 30.1316 -54.3958 0.000760971
2753
root -5.56922 13.9653 -28.4141 1242.02 -65.5483 -161.149
lfemur -59.5687 42.9867 -6.57887
ltibia 68.3275 -0 0
lfoot -2.47304 -0.893534 0.00416544
ltoes -31.4403 0 0
rfemur -30.8809 -18.4715 21.6111
rtibia 82.2023 -0 0
rfoot -35.2742 -24.7549 9.21098e-05
rtoes -14.4412 0 0
lowerback 15.6476 5.8154 0.518626
upperback -4.04713 8.10436 1.42758
thorax -13.4402 3.79446 -0.889647
lowerneck -2.49877 9.58422 2.14014
upperneck 7.73747 12.5273 1.92461
head 2.90994 6.32468 0.670926
lclavicle 1.08319e-14 -1.67153e-14 4.98294e-30
lhumerus 3.58174 10.4349 84.1872
lradius 95.0618 -0 0
lwrist -18.8432 0 0
lhand -39.793 27.943 -0.000162578
lfingers 7.12502 0 0
lthumb -12.7837 56.9159 9.43235e-05
rclavicle -4.2903e-14 9.79147e-16 -3.14758e-32
rhumerus -57.7865 50.9792 -110.124
rradius 114.092 -0 0
rwrist -84.6606 0 0
rhand 4.47364 -26.8112 0.000434327
rfingers 7.12502 -0 0
rthumb 30.1825 -54.3739 0.000800359
2754
root -5.57894 13.9571 -28.4224 1241.95 -65.592 -161.081
lfemur -59.6167 43.0251 -6.57874
ltibia 68.5262 -0 0
lfoot -2.5532 -0.975536 0.00479931
ltoes -31.4367 0 0
rfemur -30.8708 -18.5312 21.5505
rtibia 82.2757 -0 0
rfoot -35.3195 -24.7688 0.000348304
rtoes -14.4291 0 0
lowerback 15.6284 5.81379 0.527852
upperback -4.06573 8.10608 1.4406
thorax -13.4512 3.79499 -0.879979
lowerneck -2.49923 9.58805 2.13763
upperneck 7.77546 12.5307 1.93944
head 2.92176 6.32675 0.677531
lclavicle 3.61176e-15 -1.5502e-14 5.45978e-30
lhumerus 3.59232 10.4448 84.2057
lradius 95.0135 -0 0
lwrist -18.9003 0 0
lhand -39.7728 27.9287 -0.000160049
lfingers 7.12502 -0 0
lthumb -12.778 56.9463 0.00011827
rclavicle -4.31042e-14 8.42249e-16 -8.1413e-33
rhumerus -57.8131 50.9649 -110.148
rradius 114.091 -0 0
rwrist -84.6508 0 0
rhand 4.5329 -26.7952 0.000506431
rfingers 7.12502 -0 0
rthumb 30.2342 -54.3517 0.000820496
2755
root -5.58663 13.9494 -28.4325 1241.89 -65.6676 -160.998
lfemur -59.68 43.0759 -6.57863
ltibia 68.7183 -0 0
lfoot -2.63795 -1.06224 0.00534471
ltoes -31.4481 0 0
rfemur -30.8608 -18.5904 21.4905
rtibia 82.331 -0 0
rfoot -35.391 -24.7908 0.000730243
rtoes -14.4141 0 0
lowerback 15.597 5.79832 0.516889
upperback -4.07654 8.0867 1.47202
thorax -13.4517 3.78869 -0.831747
lowerneck -2.53522 9.60926 2.05311
upperneck 7.81642 12.5581 1.99674
head 2.93229 6.34013 0.712642
lclavicle -3.85366e-15 -1.42476e-14 5.79205e-30
lhumerus 3.599 10.451 84.2173
lradius 94.9678 -0 0
lwrist -18.9533 0 0
lhand -39.7529 27.9145 -0.000152604
lfingers 7.12502 -0 0
lthumb -12.7718 56.9795 0.000141025
rclavicle -4.31735e-14 7.95139e-16 0
rhumerus -57.8415 50.9497 -110.174
rradius 114.09 -0 0
rwrist -84.6395 0 0
rhand 4.59574 -26.7783 0.000564823
rfingers 7.12502 -0 0
rthumb 30.2861 -54.3293 0.000820496
2756
root -5.59802 13.9368 -28.4377 1241.85 -65.6691 -160.959
lfemur -59.7565 43.1373 -6.57861
ltibia 68.9013 -0 0
lfoot -2.72627 -1.15259 0.00577662
ltoes -31.4806 0 0
rfemur -30.8509 -18.6479 21.4321
rtibia 82.3658 -0 0
rfoot -35.4854 -24.8199 0.00119258
rtoes -14.3966 0 0
lowerback 15.5762 5.80202 0.55795
upperback -4.09551 8.10041 1.4718
thorax -13.4552 3.7917 -0.856878
lowerneck -2.50017 9.59224 2.10375
upperneck 7.7684 12.538 1.94791
head 2.9165 6.32991 0.685279
lclavicle -1.14663e-14 -1.29684e-14 5.96256e-30
lhumerus 3.60133 10.4532 84.2214
lradius 94.9252 -0 0
lwrist -19.0013 0 0
lhand -39.7335 27.9008 -0.000140658
lfingers 7.12502 -0 0
lthumb -12.7651 57.0151 0.000161405
rclavicle -4.30079e-14 7.44646e-16 1.94653e-32
rhumerus -57.8712 50.9337 -110.201
rradius 114.09 0 0
rwrist -84.6267 0 0
rhand 4.66112 -26.7606 0.000605856
rfingers 7.12502 -0 0
rthumb 30.3378 -54.3071 0.000800359
2757
root -5.60693 13.9252 -28.4443 1241.9 -65.7222 -161.03
lfemur -59.8442 43.2075 -6.57871
ltibia 69.0725 -0 0
lfoot -2.81714 -1.24555 0.00607564
ltoes -31.5319 0 0
rfemur -30.8415 -18.7027 21.3764
rtibia 82.3779 0 0
rfoot -35.5994 -24.855 0.00168727
rtoes -14.3767 0 0
lowerback 15.5737 5.7869 0.515582
upperback -4.10885 8.07194 1.47169
thorax -13.4754 3.78146 -0.826939
lowerneck -2.50216 9.60982 2.07436
upperneck 7.75753 12.5594 2.00235
head 2.90717 6.34156 0.706783
lclavicle -1.91279e-14 -1.16809e-14 5.96256e-30
lhumerus 3.59986 10.4581 84.2199
lradius 94.8865 -0 0
lwrist -19.0437 0 0
lhand -39.715 27.8876 -0.000124888
lfingers 7.12502 -0 0
lthumb -12.758 57.0527 0.000178384
rclavicle -4.25271e-14 5.98093e-16 7.51357e-32
rhumerus -57.9019 50.9171 -110.229
rradius 114.089 -0 0
rwrist -84.6128 0 0
rhand 4.72804 -26.7426 0.000627013
rfingers 7.12502 -0 0
rthumb 30.3887 -54.2852 0.000760971
